<svg width="183" height="45" viewBox="0 0 183 45" fill="none" xmlns="http://www.w3.org/2000/svg">
<circle cx="22.5" cy="22.5" r="22" stroke=" white"/>
<path d="M30.25 13.75H15.2109C14.5469 13.75 14 14.3359 14 15.0391V30C14 30.7031 14.5469 31.25 15.2109 31.25H30.25C30.9141 31.25 31.5 30.7031 31.5 30V15.0391C31.5 14.3359 30.9141 13.75 30.25 13.75ZM19.2734 28.75H16.6953V20.4297H19.2734V28.75ZM17.9844 19.2578C17.125 19.2578 16.4609 18.5938 16.4609 17.7734C16.4609 16.9531 17.125 16.25 17.9844 16.25C18.8047 16.25 19.4688 16.9531 19.4688 17.7734C19.4688 18.5938 18.8047 19.2578 17.9844 19.2578ZM29 28.75H26.3828V24.6875C26.3828 23.75 26.3828 22.5 25.0547 22.5C23.6875 22.5 23.4922 23.5547 23.4922 24.6484V28.75H20.9141V20.4297H23.375V21.5625H23.4141C23.7656 20.8984 24.625 20.1953 25.875 20.1953C28.4922 20.1953 29 21.9531 29 24.1797V28.75Z" fill=" rgb(252, 113, 33)"/>
<circle cx="91.5" cy="22.5" r="22" stroke="white"/>
<path d="M99.9297 18.4375C100.711 17.8516 101.414 17.1484 101.961 16.3281C101.258 16.6406 100.438 16.875 99.6172 16.9531C100.477 16.4453 101.102 15.6641 101.414 14.6875C100.633 15.1562 99.7344 15.5078 98.8359 15.7031C98.0547 14.8828 97 14.4141 95.8281 14.4141C93.5625 14.4141 91.7266 16.25 91.7266 18.5156C91.7266 18.8281 91.7656 19.1406 91.8438 19.4531C88.4453 19.2578 85.3984 17.6172 83.3672 15.1562C83.0156 15.7422 82.8203 16.4453 82.8203 17.2266C82.8203 18.6328 83.5234 19.8828 84.6562 20.625C83.9922 20.5859 83.3281 20.4297 82.7812 20.1172V20.1562C82.7812 22.1484 84.1875 23.7891 86.0625 24.1797C85.75 24.2578 85.3594 24.3359 85.0078 24.3359C84.7344 24.3359 84.5 24.2969 84.2266 24.2578C84.7344 25.8984 86.2578 27.0703 88.0547 27.1094C86.6484 28.2031 84.8906 28.8672 82.9766 28.8672C82.625 28.8672 82.3125 28.8281 82 28.7891C83.7969 29.9609 85.9453 30.625 88.2891 30.625C95.8281 30.625 99.9297 24.4141 99.9297 18.9844C99.9297 18.7891 99.9297 18.6328 99.9297 18.4375Z" fill=" rgb(252, 113, 33)"/>
<circle cx="160.5" cy="22.5" r="22" stroke="white"/>
<path d="M169.125 15H152.875C151.82 15 151 15.8594 151 16.875V28.125C151 29.1797 151.82 30 152.875 30H169.125C170.141 30 171 29.1797 171 28.125V16.875C171 15.8594 170.141 15 169.125 15ZM169.125 16.875V18.4766C168.227 19.2188 166.82 20.3125 163.852 22.6562C163.188 23.1641 161.898 24.4141 161 24.375C160.062 24.4141 158.773 23.1641 158.109 22.6562C155.141 20.3125 153.734 19.2188 152.875 18.4766V16.875H169.125ZM152.875 28.125V20.8984C153.734 21.6016 155.023 22.6172 156.938 24.1406C157.797 24.8047 159.32 26.2891 161 26.25C162.641 26.2891 164.125 24.8047 165.023 24.1406C166.938 22.6172 168.227 21.6016 169.125 20.8984V28.125H152.875Z" fill=" rgb(252, 113, 33)"/>
</svg>
